<svg xmlns="http://www.w3.org/2000/svg" viewBox="0 0 32 32" width="100%" height="100%" shape-rendering="crispEdges">
  <!-- Frame -->
  <rect x="4" y="6" width="24" height="20" fill="#000000"/>
  <rect x="6" y="8" width="20" height="16" fill="#444444"/>
  <!-- Film holes left -->
  <rect x="4" y="7" width="2" height="2" fill="#FFFFFF"/>
  <rect x="4" y="11" width="2" height="2" fill="#FFFFFF"/>
  <rect x="4" y="15" width="2" height="2" fill="#FFFFFF"/>
  <rect x="4" y="19" width="2" height="2" fill="#FFFFFF"/>
  <rect x="4" y="23" width="2" height="2" fill="#FFFFFF"/>
  <!-- Film holes right -->
  <rect x="26" y="7" width="2" height="2" fill="#FFFFFF"/>
  <rect x="26" y="11" width="2" height="2" fill="#FFFFFF"/>
  <rect x="26" y="15" width="2" height="2" fill="#FFFFFF"/>
  <rect x="26" y="19" width="2" height="2" fill="#FFFFFF"/>
  <rect x="26" y="23" width="2" height="2" fill="#FFFFFF"/>
  <!-- Play arrow -->
  <rect x="14" y="12" width="2" height="8" fill="#00FF00"/>
  <rect x="16" y="13" width="2" height="6" fill="#00FF00"/>
  <rect x="18" y="14" width="2" height="4" fill="#00FF00"/>
  <rect x="20" y="15" width="2" height="2" fill="#00FF00"/>
</svg>
